<svg width="129" height="133" viewBox="0 0 129 133" fill="none" xmlns="http://www.w3.org/2000/svg">
<path d="M119.786 66.2098C119.786 68.9655 121.321 74.477 124.393 82.7443C127.464 91.0115 129 96.523 129 99.2788C129 104.876 128.064 110.173 126.193 115.167C124.321 120.162 121.585 124.274 117.986 127.504C114.387 130.733 110.379 132.348 105.964 132.348H41.4643C40.2165 132.348 39.1367 131.939 38.2249 131.121C37.3131 130.302 36.8571 129.334 36.8571 128.214C36.8571 127.095 37.3131 126.126 38.2249 125.308C39.1367 124.49 40.2165 124.081 41.4643 124.081C42.808 124.081 43.9118 123.693 44.7757 122.918C45.6395 122.143 46.0714 121.153 46.0714 119.947C46.0714 117.708 45.1116 115.103 43.192 112.132C41.2723 109.161 38.9688 106.104 36.2812 102.96C33.5938 99.817 30.9062 96.5661 28.2188 93.2075C25.5312 89.8489 23.2277 86.1459 21.308 82.0984C19.3884 78.0509 18.4286 74.1326 18.4286 70.3434C18.4286 63.8846 21.308 58.5453 27.067 54.3256C25.9152 51.2254 23.0357 49.6753 18.4286 49.6753C15.6451 49.6753 12.7416 48.7926 9.71819 47.0272C6.69475 45.2618 4.3192 43.4103 2.59152 41.4726C0.863839 39.535 0 38.1356 0 37.2744C0 36.1549 0.455915 35.1861 1.36775 34.3679C2.27958 33.5498 3.35938 33.1408 4.60714 33.1408C5.375 33.1408 6.19085 32.538 7.05469 31.3323C7.91853 30.1267 8.90234 28.6196 10.0061 26.8112C11.1099 25.0027 12.3817 23.1727 13.8214 21.3212C15.2612 19.4697 17.1808 17.7473 19.5804 16.1542C21.9799 14.561 24.6674 13.463 27.6429 12.8602V0.0717773C29.8504 0.0717773 32.442 1.60036 35.4174 4.65752C38.3929 7.71468 40.3125 10.8795 41.1763 14.1519C45.7835 15.8743 49.2868 18.8669 51.6864 23.1297C54.0859 27.3925 55.2857 32.1074 55.2857 37.2744C55.2857 39.7718 55.8856 42.14 57.0854 44.3791C58.2852 46.6181 59.9888 48.6203 62.1964 50.3857C64.404 52.1511 66.2037 53.486 67.5954 54.3902C68.9872 55.2944 70.7388 56.3063 72.8504 57.4258C73.2344 57.6842 73.5223 57.8564 73.7143 57.9425C79.2812 60.7844 83.8884 63.5401 87.5357 66.2098C94.1585 71.1185 99.6535 77.2758 104.021 84.6819C108.388 92.088 110.571 98.3315 110.571 103.412C110.571 103.757 110.619 104.144 110.715 104.575C110.811 105.006 111.243 105.608 112.011 106.383C112.779 107.159 113.835 107.546 115.179 107.546C116.522 107.546 117.626 106.879 118.49 105.544C119.354 104.209 119.786 102.121 119.786 99.2788C119.786 96.2647 119.162 93.2506 117.914 90.2365C116.666 87.2224 115.131 84.359 113.307 81.6463C111.483 78.9336 109.66 76.1133 107.836 73.1853C106.012 70.2573 104.477 66.748 103.229 62.6574C101.981 58.5669 101.357 54.2395 101.357 49.6753C101.357 45.5417 103.277 41.7525 107.116 38.3078C110.955 34.8631 115.179 33.1408 119.786 33.1408C122.377 33.1408 124.561 33.9374 126.336 35.5305C128.112 37.1237 129 39.0829 129 41.408C129 42.7859 128.712 44.0131 128.136 45.0895C127.56 46.166 126.816 47.1563 125.905 48.0606C124.993 48.9648 124.489 49.503 124.393 49.6753C121.321 54.2395 119.786 59.751 119.786 66.2098Z" fill="#384D78"/>
</svg>
