<svg width="108" height="99" viewBox="0 0 108 99" fill="none" xmlns="http://www.w3.org/2000/svg">
<path d="M53.52 16.18C53.4567 16.2405 53.3725 16.2743 53.285 16.2743C53.1974 16.2743 53.1133 16.2405 53.05 16.18C53.0234 16.1491 52.9999 16.1156 52.98 16.08C47.57 4.8 32.75 1.90735e-06 21.79 6.33C15.55 10 11.4 16.61 9.80998 23.66C8.21998 30.71 8.99998 38.13 10.87 45.1C13.6486 55.1158 18.7295 64.3436 25.7074 72.0473C32.6853 79.7509 41.367 85.7171 51.06 89.47C51.4764 89.6316 51.9042 89.7619 52.34 89.86C59.65 91.53 66.71 85.2 71.34 80.14L71.75 79.68C78.28 72.36 81.35 62.68 81.75 53.03C81.92 49.03 82.67 26.16 74.96 28.03C74.5342 28.1438 74.1338 28.3372 73.78 28.6C71.47 30.22 69.39 35.47 68.52 38.15C68.4387 38.6041 68.2386 39.0285 67.94 39.38C67.42 39.82 66.63 39.54 65.94 39.38C58.0864 37.3637 49.8736 37.1858 41.94 38.86C41.6558 38.9195 41.3596 38.8731 41.1073 38.7294C40.855 38.5857 40.6639 38.3548 40.57 38.08C39.63 35.41 35 24.29 31 29.43C30.1242 30.6623 29.5644 32.0908 29.37 33.59C28.2927 39.4304 28.0771 45.3971 28.73 51.3C29.24 56.3 29.68 62.99 33.73 66.57C41.35 73.28 53.43 72.99 62.8 71.3C73.3782 69.4959 82.9583 63.9571 89.8 55.69C93.2195 51.5656 95.7429 46.7745 97.2098 41.6216C98.6766 36.4688 99.0547 31.067 98.32 25.76C97.4413 18.8844 93.9763 12.6017 88.63 8.19C86.3621 6.50271 83.7713 5.29997 81.0188 4.65657C78.2663 4.01316 75.4108 3.94285 72.63 4.45C65.34 5.65 58.81 10.45 53.9 15.76L53.52 16.18Z" stroke="url(#paint0_linear)" stroke-width="4" stroke-miterlimit="10"/>
<path d="M53.74 52C53.5462 51.5894 53.2705 51.2227 52.9298 50.9226C52.5891 50.6224 52.1906 50.3951 51.7589 50.2546C51.3271 50.1142 50.8712 50.0634 50.4191 50.1056C49.967 50.1478 49.5283 50.282 49.13 50.5C48.6799 50.7857 48.2915 51.1584 47.9876 51.5963C47.6836 52.0342 47.4702 52.5285 47.36 53.05C47.1579 54.1008 47.2128 55.1849 47.52 56.21C47.9301 57.6816 48.6778 59.0372 49.7038 60.1691C50.7298 61.3009 52.0056 62.1778 53.43 62.73C53.4902 62.759 53.5541 62.7792 53.62 62.79C54.72 63.04 55.83 61.9 56.69 61.11C59.1 58.9 62.43 53.52 59 50.78C58.6665 50.5326 58.2863 50.3554 57.8824 50.2591C57.4785 50.1629 57.0592 50.1496 56.65 50.22C55.6219 50.4292 54.6908 50.9703 54 51.76L53.74 52Z" fill="url(#paint1_linear)"/>
<defs>
<linearGradient id="paint0_linear" x1="79.72" y1="78.95" x2="33.29" y2="-1.46" gradientUnits="userSpaceOnUse">
<stop stop-color="#E36A78"/>
<stop offset="1" stop-color="#F69286"/>
</linearGradient>
<linearGradient id="paint1_linear" x1="808.854" y1="826.985" x2="725.695" y2="677.287" gradientUnits="userSpaceOnUse">
<stop stop-color="#E36A78"/>
<stop offset="1" stop-color="#F69286"/>
</linearGradient>
</defs>
</svg>
